<svg width="1000" height="1000" viewBox="0 0 1000 1000" fill="none" xmlns="http://www.w3.org/2000/svg">
<path d="M531.714 63.3576C510.809 51.2878 485.052 51.2878 464.147 63.3576L134.028 253.952C114.66 265.134 102.182 285.102 100.451 307.174L234.49 542.342C237.519 547.657 245.49 546.531 246.927 540.584L295.068 341.46C296.381 336.027 303.349 334.448 306.877 338.784L401.969 455.662C405.094 459.503 411.152 458.79 413.299 454.328L476.114 323.798C478.452 318.938 485.263 318.642 488.014 323.282L561.234 446.779C564.003 451.45 570.872 451.112 573.169 446.191L644.056 294.329C646.579 288.924 654.357 289.201 656.489 294.772L755.148 552.542C757.371 558.35 765.598 558.324 767.784 552.501L875.82 264.681C871.7 260.561 867.013 256.942 861.833 253.952L531.714 63.3576Z" fill="#F46738"/>
<path d="M895.616 401.628L768.39 740.57C766.205 746.393 757.977 746.42 755.754 740.611L650.414 465.383C648.282 459.812 640.504 459.535 637.981 464.94L580.191 588.743C577.894 593.663 571.026 594.002 568.256 589.331L494.128 464.301C491.377 459.662 484.566 459.957 482.227 464.817L427.843 577.828C425.696 582.289 419.638 583.003 416.514 579.162L340.06 485.193C336.532 480.857 329.565 482.436 328.251 487.869L272.23 719.592C270.792 725.539 262.822 726.665 259.792 721.35L100.244 441.426V693.655C100.244 717.794 113.123 740.1 134.028 752.17L464.147 942.764C485.052 954.834 510.809 954.834 531.714 942.764L861.833 752.17C882.738 740.1 895.616 717.794 895.616 693.655V401.628Z" fill="#F46738"/>
</svg>
