<svg width="178" height="44" viewBox="0 0 178 44" fill="none" xmlns="http://www.w3.org/2000/svg">
<path d="M21.9334 3.98906C21.071 3.4912 20.0086 3.4912 19.1463 3.98906L5.52928 11.8508C4.73038 12.3121 4.21567 13.1357 4.14428 14.0462L9.6732 23.7466C9.79817 23.9658 10.1269 23.9194 10.1862 23.6741L12.172 15.4605C12.2262 15.2363 12.5135 15.1712 12.6591 15.3501L16.5815 20.1712C16.7104 20.3296 16.9603 20.3002 17.0489 20.1161L19.6399 14.7319C19.7364 14.5314 20.0173 14.5193 20.1308 14.7106L23.151 19.8047C23.2652 19.9974 23.5486 19.9835 23.6433 19.7805L26.5673 13.5164C26.6714 13.2934 26.9922 13.3048 27.0802 13.5346L31.1497 24.1673C31.2414 24.4069 31.5808 24.4058 31.6709 24.1656L36.1273 12.2934C35.9573 12.1235 35.764 11.9742 35.5503 11.8508L21.9334 3.98906Z" fill="#F46738"/>
<path d="M36.9439 17.9423L31.696 31.9233C31.6058 32.1635 31.2664 32.1645 31.1747 31.9249L26.8296 20.5721C26.7416 20.3423 26.4208 20.3309 26.3167 20.5539L23.933 25.6606C23.8382 25.8635 23.5549 25.8775 23.4407 25.6848L20.383 20.5275C20.2695 20.3361 19.9886 20.3483 19.8921 20.5488L17.6488 25.2103C17.5602 25.3944 17.3104 25.4238 17.1815 25.2654L14.0279 21.3893C13.8823 21.2104 13.5949 21.2755 13.5408 21.4997L11.2299 31.0579C11.1706 31.3032 10.8419 31.3497 10.7169 31.1304L4.13574 19.5839V29.9881C4.13574 30.9838 4.66696 31.9039 5.52928 32.4017L19.1463 40.2635C20.0086 40.7614 21.071 40.7614 21.9334 40.2635L35.5503 32.4017C36.4127 31.9039 36.9439 30.9838 36.9439 29.9881V17.9423Z" fill="#F46738"/>
<path d="M55.4086 37.6402V27.8407C56.2699 27.8407 56.9106 27.6202 57.3307 27.179C57.7509 26.7379 58.0554 26.1918 58.2445 25.5406C58.4336 24.8684 58.5806 24.1646 58.6856 23.4294C58.8117 22.6942 58.9062 21.9485 58.9692 21.1922C59.0322 20.436 59.0743 19.7008 59.0953 18.9866C59.1793 17.3691 59.2423 15.7936 59.2843 14.2602C59.3263 12.7267 59.3473 11.2037 59.3473 9.69128H75.1021V27.8407H77.7804V37.6402H73.2745V32H59.9145V37.6402H55.4086ZM62.2462 27.8407H70.5962V13.882H63.5066L63.349 20.9087C63.349 21.3288 63.328 21.8329 63.286 22.4211C63.265 22.9883 63.2125 23.587 63.1285 24.2172C63.0444 24.8473 62.9289 25.4775 62.7819 26.1077C62.6558 26.7379 62.4773 27.3156 62.2462 27.8407ZM85.0064 32.2206C84.2922 32.2206 83.599 32.126 82.9268 31.937C82.2546 31.7269 81.6454 31.4118 81.0992 30.9917C80.5741 30.5716 80.1539 30.0464 79.8388 29.4162C79.5237 28.786 79.3662 28.0508 79.3662 27.2106C79.3662 26.0762 79.5973 25.1729 80.0594 24.5007C80.5215 23.8075 81.1412 23.2824 81.9185 22.9253C82.6957 22.5682 83.5885 22.3266 84.5968 22.2005C85.6261 22.0745 86.6869 22.0115 87.7792 22.0115H90.174C90.174 21.4023 90.0584 20.8666 89.8274 20.4045C89.6173 19.9214 89.2917 19.5538 88.8506 19.3017C88.4094 19.0286 87.8423 18.8921 87.149 18.8921C86.7079 18.8921 86.2773 18.9551 85.8572 19.0811C85.458 19.1861 85.1219 19.3437 84.8489 19.5538C84.5758 19.7638 84.3972 20.0369 84.3132 20.373H79.8388C79.9649 19.4487 80.259 18.661 80.7211 18.0098C81.1832 17.3376 81.7609 16.7914 82.4541 16.3713C83.1473 15.9512 83.9036 15.6466 84.7228 15.4575C85.5631 15.2475 86.4243 15.1424 87.3066 15.1424C88.9241 15.1424 90.2475 15.447 91.2768 16.0562C92.3271 16.6654 93.1043 17.5581 93.6085 18.7345C94.1336 19.9109 94.3962 21.3498 94.3962 23.0513V32H90.426L90.363 30.0464C89.8799 30.6136 89.3442 31.0652 88.756 31.4013C88.1889 31.7164 87.5902 31.9265 86.96 32.0315C86.3298 32.1575 85.6786 32.2206 85.0064 32.2206ZM86.2038 28.723C86.96 28.723 87.6427 28.576 88.2519 28.2819C88.8611 27.9668 89.3337 27.5572 89.6698 27.053C90.0269 26.5279 90.2055 25.9502 90.2055 25.32V24.9734H87.1806C86.7184 24.9734 86.2773 24.9944 85.8572 25.0364C85.458 25.0784 85.0904 25.1624 84.7543 25.2885C84.4392 25.3935 84.1872 25.5721 83.9981 25.8241C83.83 26.0552 83.746 26.3703 83.746 26.7694C83.746 27.2106 83.8511 27.5782 84.0611 27.8723C84.2922 28.1663 84.5968 28.3869 84.9749 28.534C85.353 28.66 85.7626 28.723 86.2038 28.723ZM97.8421 32V15.3945H102.253V21.7909H108.524V15.3945H112.935V32H108.524V25.7296H102.253V32H97.8421ZM114.853 32L119.422 23.3034L115.105 15.3945H119.705L123.045 21.7909H125.346V15.3945H129.757V21.7909H132.12L135.366 15.3945H140.029L135.649 23.3034L140.313 32H135.334L132.246 25.6981H129.757V32H125.346V25.6981H122.888L119.769 32H114.853ZM149.5 32.2206C147.756 32.2206 146.275 31.874 145.057 31.1808C143.839 30.4875 142.904 29.5108 142.253 28.2504C141.602 26.969 141.276 25.4775 141.276 23.776C141.276 22.0535 141.612 20.5516 142.284 19.2702C142.956 17.9678 143.902 16.949 145.12 16.2137C146.359 15.4785 147.819 15.1109 149.5 15.1109C150.739 15.1109 151.832 15.321 152.777 15.7411C153.743 16.1612 154.552 16.7494 155.203 17.5056C155.875 18.2409 156.379 19.1126 156.716 20.1209C157.052 21.1082 157.209 22.19 157.188 23.3664C157.167 23.6605 157.146 23.9441 157.125 24.2172C157.125 24.4902 157.094 24.7633 157.031 25.0364H145.656C145.719 25.6666 145.897 26.2443 146.191 26.7694C146.486 27.2946 146.895 27.7147 147.42 28.0298C147.966 28.3239 148.639 28.4709 149.437 28.4709C149.962 28.4709 150.445 28.4184 150.886 28.3134C151.327 28.1874 151.706 27.9983 152.021 27.7462C152.336 27.4941 152.556 27.2001 152.682 26.864H157.031C156.758 28.1033 156.243 29.1221 155.487 29.9204C154.752 30.7186 153.859 31.3068 152.808 31.6849C151.758 32.042 150.655 32.2206 149.5 32.2206ZM145.75 21.9485H152.966C152.945 21.3813 152.798 20.8561 152.525 20.373C152.273 19.8688 151.884 19.4697 151.359 19.1756C150.855 18.8605 150.204 18.703 149.405 18.703C148.607 18.703 147.935 18.8605 147.389 19.1756C146.864 19.4907 146.465 19.9004 146.191 20.4045C145.939 20.8877 145.792 21.4023 145.75 21.9485ZM160.03 38.2074V15.3945H164.158L164.379 17.5056C165.051 16.6234 165.849 16.0142 166.773 15.6781C167.698 15.321 168.674 15.1424 169.704 15.1424C171.279 15.1424 172.592 15.5205 173.642 16.2768C174.693 17.033 175.491 18.0623 176.037 19.3647C176.583 20.6461 176.856 22.0955 176.856 23.713C176.856 25.3305 176.583 26.7904 176.037 28.0928C175.491 29.3742 174.661 30.3825 173.548 31.1177C172.434 31.853 171.027 32.2206 169.326 32.2206C168.548 32.2206 167.845 32.1365 167.214 31.9685C166.605 31.8004 166.07 31.5694 165.607 31.2753C165.166 30.9812 164.778 30.6766 164.442 30.3615V38.2074H160.03ZM168.601 28.2504C169.588 28.2504 170.365 28.0298 170.933 27.5887C171.5 27.1475 171.899 26.5909 172.13 25.9187C172.361 25.2255 172.476 24.5112 172.476 23.776C172.476 22.9778 172.35 22.2216 172.098 21.5073C171.846 20.7931 171.426 20.226 170.838 19.8058C170.271 19.3647 169.494 19.1441 168.506 19.1441C167.624 19.1441 166.878 19.3647 166.269 19.8058C165.66 20.226 165.198 20.7826 164.883 21.4758C164.568 22.169 164.41 22.9148 164.41 23.713C164.41 24.5112 164.557 25.257 164.851 25.9502C165.166 26.6434 165.628 27.2001 166.238 27.6202C166.868 28.0403 167.656 28.2504 168.601 28.2504Z" fill="#292929"/>
</svg>
