<svg width="20" height="20" viewBox="0 0 20 20" fill="none" xmlns="http://www.w3.org/2000/svg">
<path d="M12.5 6.66683C13.8683 6.71433 15.2433 6.79016 16.6666 4.5835C18.4416 6.40516 18.1891 8.671 18.3333 10.8335C16.4816 10.1985 14.7833 11.4285 14.1666 13.3335C12.0058 13.3335 10.9258 14.1268 9.99996 16.6668C9.07413 14.1268 7.99413 13.3335 5.83329 13.3335C5.21663 11.4285 3.51829 10.1985 1.66663 10.8335C1.81079 8.671 1.55829 6.40516 3.33329 4.5835C4.75663 6.79016 6.13163 6.71433 7.49996 6.66683M12.5 6.66683V3.3335L9.99996 5.00016L7.49996 3.3335V6.66683M12.5 6.66683C12.5 7.32987 12.2366 7.96576 11.7677 8.4346C11.2989 8.90344 10.663 9.16683 9.99996 9.16683C9.33692 9.16683 8.70103 8.90344 8.23219 8.4346C7.76335 7.96576 7.49996 7.32987 7.49996 6.66683" stroke="currentColor" stroke-width="2" stroke-linecap="round" stroke-linejoin="round"/>
</svg>
