<svg width="20" height="20" viewBox="0 0 20 20" fill="none" xmlns="http://www.w3.org/2000/svg">
<path d="M14.6275 13.9582C13.4554 12.7862 11.8658 12.1279 10.2083 12.1279C8.55086 12.1279 6.96125 12.7862 5.78917 13.9582M15 3.16986C13.8516 2.50685 12.4869 2.32718 11.206 2.67037C9.92514 3.01356 8.83306 3.8515 8.17 4.99986L16.83 9.99986C17.493 8.85147 17.6727 7.48673 17.3295 6.20587C16.9863 4.925 16.1484 3.83292 15 3.16986ZM15 3.16986C15.7975 3.62986 15.325 5.94153 13.9433 8.3332M15 3.16986C14.2025 2.70986 12.4375 4.27486 11.0567 6.66653M12.5 7.49986L10 11.8299M2.5 16.0415C2.75941 15.9125 3.04375 15.8415 3.33333 15.8332C3.65791 15.8264 3.97927 15.8987 4.26965 16.0439C4.56002 16.1891 4.81069 16.4028 5 16.6665C5.18931 16.9303 5.43998 17.144 5.73035 17.2892C6.02073 17.4343 6.34209 17.5067 6.66667 17.4999C6.99125 17.5067 7.3126 17.4343 7.60298 17.2892C7.89336 17.144 8.14402 16.9303 8.33333 16.6665C8.52264 16.4028 8.77331 16.1891 9.06369 16.0439C9.35406 15.8987 9.67542 15.8264 10 15.8332C10.3246 15.8264 10.6459 15.8987 10.9363 16.0439C11.2267 16.1891 11.4774 16.4028 11.6667 16.6665C11.856 16.9303 12.1066 17.144 12.397 17.2892C12.6874 17.4343 13.0088 17.5067 13.3333 17.4999C13.6579 17.5067 13.9793 17.4343 14.2696 17.2892C14.56 17.144 14.8107 16.9303 15 16.6665C15.1893 16.4028 15.44 16.1891 15.7304 16.0439C16.0207 15.8987 16.3421 15.8264 16.6667 15.8332C16.9563 15.8415 17.2406 15.9125 17.5 16.0415" stroke="currentColor" stroke-width="2" stroke-linecap="round" stroke-linejoin="round"/>
</svg>
