<svg width="20" height="20" viewBox="0 0 20 20" fill="none" xmlns="http://www.w3.org/2000/svg">
<path d="M11.8625 15.8333C12.5833 15.8333 12.9642 16.6867 12.4833 17.2233C12.171 17.5729 11.7883 17.8524 11.3603 18.0437C10.9323 18.235 10.4688 18.3337 10 18.3333C9.53124 18.3337 9.06768 18.235 8.63971 18.0437C8.21174 17.8524 7.82904 17.5729 7.51668 17.2233C7.05668 16.71 7.38501 15.9075 8.04501 15.8392L8.13668 15.8342L11.8625 15.8333Z" fill="currentColor"/>
<path d="M10 1.66666C11.1317 1.66666 12.0883 2.41916 12.3958 3.45082L12.4342 3.59332L12.4408 3.62916C13.3595 4.14741 14.1423 4.87591 14.7252 5.75499C15.308 6.63407 15.6744 7.63872 15.7942 8.68666L15.8175 8.92582L15.8333 9.16666V11.6092L15.8508 11.7225C15.9649 12.3365 16.3047 12.8856 16.8033 13.2617L16.9425 13.3592L17.0775 13.4417C17.7942 13.8475 17.5442 14.9133 16.7633 14.995L16.6667 15H3.33333C2.47666 15 2.1775 13.8633 2.9225 13.4417C3.24002 13.262 3.51437 13.015 3.72628 12.718C3.93819 12.421 4.08253 12.0812 4.14916 11.7225L4.16666 11.6033L4.1675 9.12832C4.21831 8.03989 4.53513 6.9805 5.09023 6.04288C5.64534 5.10526 6.4218 4.31799 7.35166 3.74999L7.55833 3.62832L7.56666 3.59249C7.68454 3.09418 7.95245 2.64402 8.33423 2.30277C8.71602 1.96152 9.1933 1.7456 9.70166 1.68416L9.85333 1.66999L10 1.66666Z" fill="currentColor"/>
<path d="M11.8625 15.8333C12.5833 15.8333 12.9642 16.6867 12.4833 17.2233C12.171 17.5729 11.7883 17.8524 11.3603 18.0437C10.9323 18.235 10.4688 18.3337 10 18.3333C9.53124 18.3337 9.06768 18.235 8.63971 18.0437C8.21174 17.8524 7.82904 17.5729 7.51668 17.2233C7.05668 16.71 7.38501 15.9075 8.04501 15.8392L8.13668 15.8342L11.8625 15.8333Z" stroke="transparent"/>
<path d="M10 1.66666C11.1317 1.66666 12.0883 2.41916 12.3958 3.45082L12.4342 3.59332L12.4408 3.62916C13.3595 4.14741 14.1423 4.87591 14.7252 5.75499C15.308 6.63407 15.6744 7.63872 15.7942 8.68666L15.8175 8.92582L15.8333 9.16666V11.6092L15.8508 11.7225C15.9649 12.3365 16.3047 12.8856 16.8033 13.2617L16.9425 13.3592L17.0775 13.4417C17.7942 13.8475 17.5442 14.9133 16.7633 14.995L16.6667 15H3.33333C2.47666 15 2.1775 13.8633 2.9225 13.4417C3.24002 13.262 3.51437 13.015 3.72628 12.718C3.93819 12.421 4.08253 12.0812 4.14916 11.7225L4.16666 11.6033L4.1675 9.12832C4.21831 8.03989 4.53513 6.9805 5.09023 6.04288C5.64534 5.10526 6.4218 4.31799 7.35166 3.74999L7.55833 3.62832L7.56666 3.59249C7.68454 3.09418 7.95245 2.64402 8.33423 2.30277C8.71602 1.96152 9.1933 1.7456 9.70166 1.68416L9.85333 1.66999L10 1.66666Z" stroke="transparent"/>
</svg>
