<svg width="20" height="20" viewBox="0 0 20 20" fill="none" xmlns="http://www.w3.org/2000/svg">
<path d="M10 17.5V9.99999M10 9.99999L3.75 6.24999M10 9.99999L16.25 6.24999M10 2.49999V6.24999M16.25 13.3333L13.3333 11.6667M6.66667 11.6667L3.75 13.3333M16.5625 5.22498C16.8489 5.38787 17.0867 5.62413 17.2515 5.90945C17.4163 6.19477 17.5021 6.51884 17.5 6.84832V12.9183C17.5 13.5925 17.1308 14.2142 16.535 14.5417L10.91 18.1C10.6311 18.2531 10.3181 18.3334 10 18.3334C9.68186 18.3334 9.36887 18.2531 9.09 18.1L3.465 14.5417C3.17347 14.3823 2.9301 14.1476 2.76034 13.862C2.59058 13.5765 2.50067 13.2505 2.5 12.9183V6.84748C2.5 6.17332 2.86917 5.55248 3.465 5.22498L9.09 1.90832C9.37711 1.75001 9.69964 1.66699 10.0275 1.66699C10.3554 1.66699 10.6779 1.75001 10.965 1.90832L16.59 5.22498H16.5625ZM12.9167 7.85833C13.0443 7.93203 13.1502 8.03828 13.2234 8.16623C13.2966 8.29418 13.3345 8.43926 13.3333 8.58666V11.31C13.3333 11.4586 13.2934 11.6046 13.218 11.7326C13.1425 11.8607 13.0342 11.9662 12.9042 12.0383L10.4042 13.6358C10.2805 13.7044 10.1414 13.7404 10 13.7404C9.85859 13.7404 9.7195 13.7044 9.59583 13.6358L7.09583 12.0383C6.96597 11.9663 6.8577 11.8609 6.78225 11.733C6.7068 11.6051 6.66689 11.4593 6.66667 11.3108V8.58666C6.66666 8.4381 6.70637 8.29224 6.78168 8.16418C6.85699 8.03613 6.96516 7.93053 7.095 7.85833L9.595 6.37C9.85417 6.22583 10.17 6.22583 10.4283 6.37L12.9283 7.85916L12.9167 7.85833Z" stroke="currentColor" stroke-width="2" stroke-linecap="round" stroke-linejoin="round"/>
</svg>
