<svg width="16" height="16" viewBox="0 0 16 16" fill="none" xmlns="http://www.w3.org/2000/svg">
<path d="M1.33337 10.6667H4.66671L2.00004 13.3333M14.6667 10.6667H11.3334L14 13.3333M6.00004 7.33333V7.34M10 7.33333V7.34M13.3334 2V8.66667C13.3334 10.0812 12.7715 11.4377 11.7713 12.4379C10.7711 13.4381 9.41453 14 8.00004 14C6.58555 14 5.229 13.4381 4.2288 12.4379C3.22861 11.4377 2.66671 10.0812 2.66671 8.66667V2L4.95471 4.288C5.84787 3.66496 6.91104 3.33167 8.00004 3.33333C9.17937 3.33333 10.2687 3.716 11.152 4.364L13.3334 2ZM7.33337 10.6667C7.33337 10.8435 7.40361 11.013 7.52864 11.1381C7.65366 11.2631 7.82323 11.3333 8.00004 11.3333C8.17685 11.3333 8.34642 11.2631 8.47145 11.1381C8.59647 11.013 8.66671 10.8435 8.66671 10.6667C8.66671 10.4899 8.59647 10.3203 8.47145 10.1953C8.34642 10.0702 8.17685 10 8.00004 10C7.82323 10 7.65366 10.0702 7.52864 10.1953C7.40361 10.3203 7.33337 10.4899 7.33337 10.6667Z" stroke="currentColor" stroke-width="2" stroke-linecap="round" stroke-linejoin="round"/>
</svg>
