<svg width="28" height="28" viewBox="0 0 28 28" fill="none" xmlns="http://www.w3.org/2000/svg">
<g clip-path="url(#clip0_650_5725)">
<path d="M4.55273 7.68693L6.97721 9.14071C7.33268 9.3549 7.78841 9.23185 7.98893 8.87183L11.5208 2.50529C11.6576 2.2592 11.4798 1.95386 11.1973 1.95386C11.1243 1.95386 11.0514 1.97664 10.9876 2.01766L4.51628 6.45646C4.07878 6.75724 4.09701 7.40894 4.55273 7.68237V7.68693ZM3.0625 9.77873V15.407C3.0625 15.7716 3.53646 15.9083 3.73242 15.6075L6.4668 11.4148C6.69466 11.0684 6.58529 10.6036 6.22982 10.3894L4.16536 9.15438C3.68229 8.86271 3.0625 9.21362 3.0625 9.77873ZM16.4792 2.50529L20.0156 8.86727C20.2161 9.2273 20.6764 9.35034 21.0273 9.13615L23.4518 7.68237C23.9076 7.40894 23.9258 6.75724 23.4883 6.45646L17.0124 2.01766C16.9486 1.97664 16.8757 1.95386 16.8027 1.95386C16.5202 1.95386 16.3424 2.2592 16.4792 2.50529ZM24.9375 9.77873C24.9375 9.21362 24.3177 8.86271 23.8346 9.15438L21.7702 10.394C21.4147 10.6082 21.3099 11.073 21.5332 11.4194L24.2676 15.6121C24.4635 15.9174 24.9375 15.7761 24.9375 15.4115V9.78329V9.77873ZM22.6908 20.9897L15.3717 21.851C15.0026 21.892 14.7292 22.2065 14.7292 22.5756V24.9819C14.7292 25.1505 14.8659 25.2918 15.0391 25.2918C15.0755 25.2918 15.112 25.2872 15.1484 25.2735L23.0189 22.3569C23.2969 22.2566 23.4792 21.9923 23.4792 21.696C23.4792 21.2722 23.11 20.9441 22.6908 20.9942V20.9897ZM12.9609 25.2872C13.1296 25.2872 13.2708 25.1505 13.2708 24.9773V22.5802C13.2708 22.211 12.9928 21.9011 12.6283 21.8556L5.30925 20.9897C4.88997 20.9395 4.52083 21.2677 4.52083 21.6915C4.52083 21.9877 4.70313 22.252 4.98112 22.3523L12.8516 25.269C12.888 25.2826 12.9245 25.2872 12.9609 25.2872ZM4.23372 19.4037L12.0221 20.3243C12.3776 20.3653 12.6328 19.9825 12.4551 19.6726L8.54948 12.8367C8.2806 12.3627 7.60612 12.3445 7.30534 12.8002L3.70964 18.2781C3.41341 18.7293 3.69596 19.3399 4.23372 19.4037ZM24.2676 18.2735L20.6947 12.8048C20.3984 12.349 19.7194 12.3673 19.4505 12.8412L15.5586 19.6589C15.3809 19.9688 15.6315 20.3516 15.9915 20.3106L23.7435 19.3992C24.2813 19.3354 24.5638 18.7293 24.2676 18.2781V18.2735ZM14.3828 18.7748L17.9557 12.5222C18.2337 12.0346 17.8828 11.433 17.3223 11.433H10.6823C10.1217 11.433 9.77083 12.0391 10.0488 12.5222L13.6217 18.7748C13.7904 19.0665 14.2142 19.0665 14.3828 18.7748ZM10.2813 9.97469H17.7188C18.2747 9.97469 18.6257 9.37769 18.3568 8.89006L14.7109 2.32756C14.5833 2.09513 14.3372 1.95386 14.0729 1.95386H13.9271C13.6628 1.95386 13.4167 2.09969 13.2891 2.32756L9.64323 8.89006C9.37435 9.37769 9.72526 9.97469 10.2813 9.97469Z" fill="currentColor"/>
</g>
<defs>
<clipPath id="clip0_650_5725">
<rect width="23.3333" height="23.3333" fill="white" transform="translate(2.33325 1.95386)"/>
</clipPath>
</defs>
</svg>
