<svg width="20" height="20" viewBox="0 0 20 20" fill="none" xmlns="http://www.w3.org/2000/svg">
<path d="M7.49978 12.5L12.4998 7.49999M9.16644 4.99999L9.55228 4.55332C10.3338 3.77193 11.3937 3.33299 12.4988 3.33307C13.604 3.33315 14.6638 3.77224 15.4452 4.55374C16.2266 5.33524 16.6655 6.39515 16.6654 7.50028C16.6654 8.60542 16.2263 9.66526 15.4448 10.4467L14.9998 10.8333M10.8331 15L10.5023 15.445C9.71167 16.2268 8.64462 16.6653 7.53271 16.6653C6.4208 16.6653 5.35375 16.2268 4.56313 15.445C4.17342 15.0597 3.86404 14.6008 3.65289 14.0951C3.44173 13.5894 3.33301 13.0468 3.33301 12.4987C3.33301 11.9507 3.44173 11.4081 3.65289 10.9024C3.86404 10.3966 4.17342 9.93782 4.56313 9.55249L4.99979 9.16666" stroke="currentColor" stroke-width="2" stroke-linecap="round" stroke-linejoin="round"/>
</svg>
