<svg width="16" height="16" viewBox="0 0 16 16" fill="none" xmlns="http://www.w3.org/2000/svg">
<path d="M6.33329 2H9.66663C9.93184 2 10.1862 2.10536 10.3737 2.29289C10.5613 2.48043 10.6666 2.73478 10.6666 3C10.6666 3.61884 10.4208 4.21233 9.98321 4.64992C9.54562 5.0875 8.95213 5.33333 8.33329 5.33333H7.66663C7.04779 5.33333 6.45429 5.0875 6.01671 4.64992C5.57913 4.21233 5.33329 3.61884 5.33329 3C5.33329 2.73478 5.43865 2.48043 5.62619 2.29289C5.81372 2.10536 6.06808 2 6.33329 2Z" stroke="currentColor" stroke-width="2" stroke-linecap="round" stroke-linejoin="round"/>
<path d="M2.66663 11.3333V10.6667C2.66663 9.25218 3.22853 7.89562 4.22872 6.89543C5.22892 5.89524 6.58547 5.33333 7.99996 5.33333C9.41445 5.33333 10.771 5.89524 11.7712 6.89543C12.7714 7.89562 13.3333 9.25218 13.3333 10.6667V11.3333C13.3333 12.0406 13.0523 12.7189 12.5522 13.219C12.0521 13.719 11.3739 14 10.6666 14H5.33329C4.62605 14 3.94777 13.719 3.44767 13.219C2.94758 12.7189 2.66663 12.0406 2.66663 11.3333Z" stroke="currentColor" stroke-width="2" stroke-linecap="round" stroke-linejoin="round"/>
</svg>
