<svg width="24" height="25" viewBox="0 0 24 25" fill="none" xmlns="http://www.w3.org/2000/svg">
<path d="M15 7.32565L8.50001 13.8256C8.10218 14.2235 7.87869 14.763 7.87869 15.3256C7.87869 15.8883 8.10218 16.4278 8.50001 16.8256C8.89783 17.2235 9.4374 17.447 10 17.447C10.5626 17.447 11.1022 17.2235 11.5 16.8256L18 10.3256C18.7957 9.53 19.2427 8.45087 19.2427 7.32565C19.2427 6.20043 18.7957 5.1213 18 4.32565C17.2044 3.53 16.1252 3.08301 15 3.08301C13.8748 3.08301 12.7957 3.53 12 4.32565L5.50001 10.8256C4.30653 12.0191 3.63605 13.6378 3.63605 15.3256C3.63605 17.0135 4.30653 18.6322 5.50001 19.8256C6.69348 21.0191 8.31218 21.6896 10 21.6896C11.6878 21.6896 13.3065 21.0191 14.5 19.8256L21 13.3256" stroke="currentColor" stroke-width="2" stroke-linecap="round" stroke-linejoin="round"/>
</svg>
