<svg width="28" height="28" viewBox="0 0 28 28" fill="none" xmlns="http://www.w3.org/2000/svg">
<path d="M13.9999 2.33337L14.3779 2.33454L14.7489 2.33921L15.4676 2.35904L15.8164 2.37421L16.4919 2.41387L17.1371 2.46754C22.7196 3.00887 24.9911 5.28037 25.5324 10.8629L25.5861 11.508L25.6258 12.1835C25.6316 12.2979 25.6374 12.4145 25.6409 12.5324L25.6608 13.251L25.6666 14L25.6608 14.749L25.6409 15.4677L25.6258 15.8165L25.5861 16.492L25.5324 17.1372C24.9911 22.7197 22.7196 24.9912 17.1371 25.5325L16.4919 25.5862L15.8164 25.6259C15.7021 25.6317 15.5854 25.6375 15.4676 25.641L14.7489 25.6609L13.9999 25.6667L13.2509 25.6609L12.5323 25.641L12.1834 25.6259L11.5079 25.5862L10.8628 25.5325C5.28025 24.9912 3.00875 22.7197 2.46742 17.1372L2.41375 16.492L2.37409 15.8165C2.36841 15.7003 2.36335 15.584 2.35892 15.4677L2.33909 14.749C2.33559 14.504 2.33325 14.2544 2.33325 14L2.33442 13.622L2.33909 13.251L2.35892 12.5324L2.37409 12.1835L2.41375 11.508L2.46742 10.8629C3.00875 5.28037 5.28025 3.00887 10.8628 2.46754L11.5079 2.41387L12.1834 2.37421C12.2978 2.36837 12.4144 2.36254 12.5323 2.35904L13.2509 2.33921C13.4959 2.33571 13.7456 2.33337 13.9999 2.33337ZM13.9999 9.33337C13.6905 9.33337 13.3938 9.45629 13.175 9.67508C12.9562 9.89388 12.8333 10.1906 12.8333 10.5V12.8334H10.4999L10.3634 12.8415C10.0681 12.8767 9.79742 13.0232 9.60656 13.2512C9.41571 13.4793 9.31912 13.7716 9.33655 14.0684C9.35398 14.3653 9.4841 14.6443 9.70032 14.8484C9.91655 15.0525 10.2026 15.1664 10.4999 15.1667H12.8333V17.5L12.8414 17.6365C12.8765 17.9318 13.0231 18.2025 13.2511 18.3934C13.4791 18.5843 13.7714 18.6808 14.0683 18.6634C14.3651 18.646 14.6441 18.5159 14.8483 18.2996C15.0524 18.0834 15.1663 17.7974 15.1666 17.5V15.1667H17.4999L17.6364 15.1585C17.9317 15.1234 18.2024 14.9769 18.3933 14.7488C18.5841 14.5208 18.6807 14.2285 18.6633 13.9317C18.6459 13.6348 18.5157 13.3558 18.2995 13.1517C18.0833 12.9476 17.7973 12.8337 17.4999 12.8334H15.1666V10.5L15.1584 10.3635C15.125 10.0797 14.9886 9.81809 14.775 9.62821C14.5615 9.43832 14.2857 9.33341 13.9999 9.33337Z" fill="currentColor"/>
</svg>
