<svg width="16" height="16" viewBox="0 0 16 16" fill="none" xmlns="http://www.w3.org/2000/svg">
<path d="M10.6667 3.33363L12.6667 5.33363L11.3333 6.00029L14 8.66696L12 9.33363L14.6667 12.0003H8.66667M10 14.0003V12.0003M5.33333 8.66696L4 7.33363M5.33333 8.00029L6.66667 6.66696M5.33333 14.0003V5.33363M3.88267 10.667C3.59099 10.6499 3.30659 10.5691 3.04948 10.4303C2.79236 10.2915 2.56879 10.098 2.39448 9.86354C2.22016 9.62905 2.09935 9.35921 2.04052 9.07301C1.9817 8.78681 1.9863 8.49119 2.05401 8.20696C1.81232 8.00569 1.62151 7.75026 1.49707 7.46141C1.37263 7.17256 1.31806 6.85843 1.33781 6.54453C1.35755 6.23064 1.45105 5.92582 1.6107 5.65484C1.77036 5.38386 1.99167 5.15435 2.25667 4.98496C2.02425 4.57206 1.94597 4.09006 2.03578 3.62483C2.12559 3.1596 2.37765 2.74137 2.74705 2.44464C3.11645 2.14792 3.5792 1.99199 4.05285 2.00462C4.5265 2.01725 4.98028 2.19763 5.33334 2.51362C5.68648 2.19813 6.14011 2.01818 6.61349 2.00579C7.08688 1.9934 7.5493 2.14939 7.91845 2.44598C8.28761 2.74257 8.53956 3.16052 8.62945 3.62546C8.71934 4.09039 8.64134 4.57214 8.40934 4.98496C8.67438 5.1543 8.89575 5.38376 9.05547 5.65471C9.21519 5.92566 9.30875 6.23047 9.32856 6.54436C9.34837 6.85826 9.29387 7.17241 9.16948 7.46129C9.04509 7.75017 8.85433 8.00564 8.61267 8.20696C8.68266 8.50082 8.68516 8.80672 8.62 9.10169C8.55485 9.39666 8.42371 9.67303 8.23646 9.91007C8.0492 10.1471 7.81068 10.3387 7.5388 10.4703C7.26693 10.602 6.96875 10.6704 6.66667 10.6703H4.00001L3.88267 10.667Z" stroke="currentColor" stroke-width="2" stroke-linecap="round" stroke-linejoin="round"/>
</svg>
