<svg width="28" height="28" viewBox="0 0 28 28" fill="none" xmlns="http://www.w3.org/2000/svg">
<path d="M21.0798 2.62505L17.6872 9.19803L17.3211 7.43048L15.9799 12.2411L18.7607 10.6528L18.7705 12.2445L24.4084 9.49028L21.2656 9.38376L23.3863 5.6699L20.1255 7.79216L21.0797 2.625L21.0798 2.62505ZM12.0632 4.36546L10.6429 5.1444L11.3918 8.15372L3.5 12.481L4.05763 13.9882L11.9494 9.65925L13.2989 12.3341L15.4875 11.1343L14.5402 7.33083L12.0632 4.36546ZM11.5028 13.2701V14.3701H7.55686C8.26672 16.4684 9.83037 17.9079 11.5028 18.3864V20.1691H14.1019C13.5641 21.8198 12.6149 23.18 11.5068 24.3646H10.3766V25.375H22.9964V24.3647H21.7801C20.5048 23.1808 19.5585 21.8224 19.045 20.1691H21.8703V18.5909C22.7468 18.2127 23.6234 17.536 24.5 16.6073C23.6207 15.6598 22.7589 15.1339 21.8703 14.8804V13.2702H11.5028L11.5028 13.2701Z" fill="currentColor"/>
</svg>
