<svg width="24" height="24" viewBox="0 0 24 24" fill="none" xmlns="http://www.w3.org/2000/svg">
<path d="M10.0111 10.271C9.54855 10.1264 9.10683 10.0032 8.6859 9.9013C8.51243 9.31228 8.42486 8.69802 8.4263 8.0803C8.4263 5.38515 10.0409 3.2002 12.0327 3.2002C14.0245 3.2002 15.6376 5.3831 15.6376 8.07865C15.6388 8.6674 15.5593 9.25313 15.4018 9.81709C14.878 9.93484 14.32 10.0862 13.7278 10.271C12.8854 10.5347 12.2043 10.796 11.8685 10.9303C11.5346 10.796 10.8534 10.5347 10.0111 10.271ZM5.11202 13.7602C4.69428 13.7602 4.28593 13.8931 3.9386 14.1421C3.59128 14.3911 3.32057 14.745 3.16073 15.1591C3.00089 15.5731 2.95909 16.0287 3.04061 16.4683C3.12213 16.9078 3.32332 17.3116 3.61873 17.6284C3.91414 17.9453 4.2905 18.1611 4.70022 18.2485C5.10993 18.3358 5.5346 18.2909 5.92052 18.1194C6.30643 17.9478 6.63626 17.6573 6.86828 17.2846C7.10031 16.912 7.22411 16.4738 7.22403 16.0257C7.22393 15.4248 7.00137 14.8486 6.6053 14.4237C6.20923 13.9989 5.67209 13.7602 5.11202 13.7602ZM18.888 13.7602C18.4703 13.7602 18.0619 13.8931 17.7146 14.1421C17.3672 14.3911 17.0965 14.745 16.9367 15.1591C16.7769 15.5731 16.7351 16.0287 16.8166 16.4683C16.8981 16.9078 17.0993 17.3116 17.3947 17.6284C17.6901 17.9453 18.0665 18.1611 18.4762 18.2485C18.8859 18.3358 19.3106 18.2909 19.6965 18.1194C20.0824 17.9478 20.4122 17.6573 20.6442 17.2846C20.8763 16.912 21.0001 16.4738 21 16.0257C20.9999 15.4249 20.7774 14.8487 20.3814 14.4239C19.9854 13.999 19.4484 13.7603 18.8884 13.7602H18.888ZM16.1637 16.0257C16.1643 15.4605 16.3174 14.9076 16.6046 14.4338C16.8917 13.96 17.3006 13.5855 17.7818 13.3556V10.17C15.3126 10.17 11.8685 11.634 11.8685 11.634C11.8685 11.634 8.42439 10.17 5.95514 10.17V13.2475C6.5017 13.4386 6.97791 13.8103 7.3156 14.3094C7.65329 14.8084 7.83515 15.4094 7.83515 16.0261C7.83515 16.6428 7.65329 17.2437 7.3156 17.7428C6.97791 18.2419 6.5017 18.6135 5.95514 18.8046V19.0922C8.42439 19.0922 11.8685 20.8002 11.8685 20.8002C11.8685 20.8002 15.3141 19.0934 17.7818 19.0934V18.6958C17.3006 18.4658 16.8917 18.0914 16.6046 17.6175C16.3174 17.1437 16.1643 16.5908 16.1637 16.0257Z" fill="currentColor"/>
</svg>
