<svg width="28" height="28" viewBox="0 0 28 28" fill="none" xmlns="http://www.w3.org/2000/svg">
<path d="M12.3834 3.5C11.7273 3.5 10.9742 3.66085 10.0963 4.03677C13.6633 4.42534 13.1412 8.16647 10.7478 8.83517C7.72595 9.68009 4.68056 7.76434 6.20395 4.35305C4.37098 5.20926 4.25547 8.00381 5.60651 9.39092C8.82102 12.6802 4.92129 14.989 4.01335 11.4512C2.20308 17.1217 5.08024 24.5 14.2455 24.5C25.8292 24.5 27.2754 7.57006 20.2153 5.74739C21.4397 7.69205 19.61 8.95264 19.0647 9.05205C16.6944 9.49935 16.3802 3.49955 12.3834 3.5ZM14.1161 8.83517C14.3241 8.83517 14.5505 8.88487 14.7076 8.9662L20.0628 11.998C20.4047 12.1832 20.4047 12.4904 20.0628 12.6847L14.7076 15.7075C14.3749 15.9017 13.8528 15.9017 13.5201 15.7075L8.15104 12.6847C7.81374 12.4904 7.81374 12.1832 8.15104 11.998L13.5201 8.9662C13.6772 8.88487 13.8851 8.83517 14.1161 8.83517ZM10.0039 11.6636C9.00584 11.6455 8.47448 12.3413 9.16294 12.7615C9.60651 12.9784 10.258 12.9603 10.6739 12.7254C11.0805 12.4859 11.1128 12.1064 10.7432 11.8489C10.5445 11.7359 10.2811 11.6681 10.0039 11.6636ZM18.2561 11.6681C17.2951 11.6862 16.8099 12.3685 17.503 12.7751C17.9466 12.9965 18.6073 12.9829 19.0278 12.7435C19.439 12.504 19.4667 12.1154 19.0832 11.8579C18.8892 11.7495 18.6258 11.6772 18.3486 11.6681H18.2561ZM14.1439 11.6681C13.8389 11.6636 13.5432 11.7359 13.326 11.8579C12.8547 12.1109 12.8455 12.5401 13.2983 12.8022C13.7557 13.0643 14.4904 13.0552 14.9201 12.7751C15.6132 12.3685 15.1327 11.6772 14.1439 11.6681ZM7.62892 13.5206C7.69823 13.5251 7.78602 13.5432 7.88767 13.5929L13.0396 16.5072C13.3722 16.6924 13.6356 17.1488 13.6356 17.5238V22.9322C13.6356 23.3072 13.3722 23.4608 13.0396 23.2755L7.89229 20.3658C7.55037 20.1715 7.28238 19.7242 7.28238 19.3447V13.9363C7.28238 13.6562 7.421 13.5206 7.62892 13.5206ZM20.6265 13.5206C20.8205 13.5206 20.9592 13.6562 20.9592 13.9363V19.3447C20.9592 19.7242 20.6819 20.1715 20.3585 20.3658L15.2066 23.2755C14.8739 23.4608 14.6105 23.3072 14.6105 22.9322V17.5238C14.6105 17.1488 14.8739 16.6924 15.2066 16.5072L20.3585 13.5929C20.4555 13.5432 20.5525 13.5251 20.6265 13.5206ZM12.0785 16.4801H12.0277C11.7828 16.4981 11.6349 16.697 11.6349 17.0042C11.6072 17.4741 11.9676 18.0931 12.4158 18.3506C12.8686 18.6037 13.229 18.4003 13.2105 17.9033C13.2198 17.2617 12.596 16.4981 12.0785 16.4801ZM18.1268 17.4651C17.6093 17.4696 16.9809 18.2422 16.9855 18.8838C16.9901 19.3537 17.3413 19.5344 17.7802 19.2859C18.2146 19.0374 18.5657 18.4591 18.5703 17.9847C18.5703 17.6819 18.4179 17.4831 18.1776 17.4651H18.1268ZM8.10484 18.4817C7.85533 18.4952 7.70285 18.694 7.70285 19.0058C7.67975 19.4802 8.04015 20.0947 8.48834 20.3522C8.94115 20.6007 9.30155 20.3974 9.28307 19.8959C9.28307 19.2407 8.63158 18.4591 8.10484 18.4817Z" fill="currentColor"/>
</svg>
