<svg width="28" height="28" viewBox="0 0 28 28" fill="none" xmlns="http://www.w3.org/2000/svg">
<path d="M4.60071 3.50013C4.58199 3.49984 4.56327 3.50003 4.54457 3.50069C4.32595 3.50797 4.17552 3.58117 4.07297 3.68325C3.93625 3.81934 3.851 4.04015 3.90566 4.39366C3.9604 4.74717 4.17067 5.21775 4.61782 5.73702C7.78388 9.41372 10.8169 12.9577 13.1843 15.5761C13.7567 16.209 14.2892 16.7866 14.7757 17.2997C15.3397 15.8189 16.3877 14.7865 17.7089 14.2958C17.2041 13.8224 16.6394 13.3065 16.021 12.7526C13.3905 10.3961 9.83007 7.37694 6.13636 4.22549C5.61473 3.78035 5.14193 3.5711 4.78677 3.51661C4.7252 3.50693 4.66303 3.50143 4.60071 3.50013ZM22.0929 3.54854C22.0786 3.5484 22.065 3.54873 22.0521 3.54961C21.949 3.55643 21.8964 3.57997 21.8387 3.63739L20.5526 4.91757L23.1247 7.47766L24.4107 6.19748C24.4684 6.14011 24.4921 6.08784 24.4988 5.98517C24.5058 5.88258 24.4816 5.73294 24.4147 5.5598C24.2809 5.21353 23.9821 4.78616 23.6194 4.42513C23.2567 4.0641 22.8274 3.7667 22.4795 3.63349C22.3273 3.57523 22.1932 3.54947 22.093 3.54854H22.0929ZM19.9591 5.50828L19.4975 5.96785L19.9591 6.42729L20.5526 7.01813L21.0143 7.47757L21.6079 8.06842L22.0694 8.52795L22.5311 8.06842L19.9591 5.50828ZM18.904 6.5586L14.8288 10.615L15.3169 11.0482L19.3656 7.01813L18.904 6.5586ZM19.9591 7.60898L15.9445 11.605L16.4326 12.0382L20.4208 8.06842L19.9591 7.60893V7.60898ZM21.0144 8.65912L17.0602 12.5951L17.5484 13.0282L21.476 9.1187L21.0145 8.65917H21.0144V8.65912ZM11.0417 14.3847L5.45063 19.9501L5.9122 20.4095L11.4774 14.87L11.0417 14.3847ZM18.3938 14.9485C16.9733 15.3025 15.9111 16.3031 15.4276 17.9757C15.6911 18.2443 15.9385 18.4903 16.1634 18.7048C16.5169 19.042 16.8208 19.3086 17.0592 19.4919C17.1421 18.6924 17.5277 17.9573 18.0686 17.4175C18.563 16.9242 19.2109 16.5817 19.8931 16.5313C19.7126 16.3068 19.4669 16.0323 19.1643 15.7179C18.9387 15.4837 18.6786 15.2248 18.3938 14.9485ZM12.0376 15.4938L6.50569 21.0001L6.96735 21.4598L12.4735 15.9791L12.0376 15.4938ZM13.0338 16.6029L7.56093 22.0505L8.02241 22.51L13.4695 17.0882L13.0338 16.6029ZM20.0423 17.3598C19.5574 17.3662 19.0663 17.6049 18.6628 18.0076C18.1248 18.5444 17.792 19.3468 17.9042 20.1289C18.153 21.8622 19.0117 23.1836 20.2107 23.8996C21.2705 24.5326 22.61 24.705 24.1111 24.2238C22.9816 24.0376 21.9439 22.7985 21.8636 21.8728C22.3593 22.4676 22.98 23.0122 23.6555 23.3465C23.1947 22.2985 23.2264 21.2367 23.1384 20.3609C23.0754 19.7332 22.957 19.2013 22.6079 18.7288C22.2588 18.2562 21.6555 17.8097 20.5216 17.4335C20.3671 17.3823 20.2051 17.3574 20.0423 17.3598ZM5.01033 20.6933L5.01019 20.6934L5.01028 20.6935L5.01033 20.6933ZM5.01028 20.6935L4.44524 22.1L5.86249 23.5108L7.27568 22.9482L6.96744 22.6413L6.37372 22.0506L5.91215 21.5911L5.31852 21.0003L5.01028 20.6935ZM4.10585 22.9441L3.5 24.4515L5.01453 23.8484L4.10585 22.9441Z" fill="currentColor"/>
</svg>
