<svg width="44" height="44" viewBox="0 0 44 44" fill="none" xmlns="http://www.w3.org/2000/svg">
<path d="M23.3954 2.78774C22.4756 2.25667 21.3423 2.25667 20.4225 2.78774L5.89725 11.1739C5.04506 11.6659 4.49603 12.5445 4.41988 13.5156L10.3176 23.863C10.4509 24.0969 10.8016 24.0474 10.8648 23.7857L12.983 15.0243C13.0408 14.7852 13.3474 14.7157 13.5026 14.9065L17.6867 20.0492C17.8241 20.2181 18.0907 20.1867 18.1852 19.9904L20.949 14.2471C21.0519 14.0333 21.3516 14.0203 21.4726 14.2244L24.6943 19.6583C24.8162 19.8638 25.1184 19.8489 25.2194 19.6324L28.3385 12.9505C28.4495 12.7127 28.7917 12.7249 28.8855 12.97L33.2265 24.3118C33.3243 24.5674 33.6863 24.5663 33.7825 24.31L38.5361 11.646C38.3548 11.4647 38.1486 11.3055 37.9207 11.1739L23.3954 2.78774Z" fill="#F46738"/>
<path d="M39.4071 17.6716L33.8092 32.5851C33.713 32.8413 33.351 32.8425 33.2532 32.5869L28.6182 20.4768C28.5244 20.2317 28.1822 20.2195 28.0712 20.4574L25.5284 25.9047C25.4274 26.1212 25.1251 26.1361 25.0033 25.9306L21.7416 20.4293C21.6206 20.2251 21.3209 20.2381 21.218 20.452L18.8251 25.4244C18.7307 25.6207 18.4641 25.6521 18.3266 25.4831L14.9627 21.3485C14.8074 21.1577 14.5009 21.2272 14.4431 21.4662L11.9781 31.662C11.9149 31.9237 11.5642 31.9733 11.4309 31.7394L4.41077 19.4228V30.5208C4.41077 31.583 4.97741 32.5644 5.89725 33.0955L20.4225 41.4816C21.3423 42.0127 22.4756 42.0127 23.3954 41.4816L37.9207 33.0955C38.8405 32.5644 39.4071 31.583 39.4071 30.5208V17.6716Z" fill="#F46738"/>
</svg>
