<svg width="48" height="48" viewBox="0 0 48 48" fill="none" xmlns="http://www.w3.org/2000/svg">
<rect width="48" height="48" rx="24" fill="#FBE0CF"/>
<path d="M31.0798 12.6251L27.6872 19.198L27.3211 17.4305L25.9799 22.2411L28.7607 20.6528L28.7705 22.2445L34.4084 19.4903L31.2656 19.3838L33.3863 15.6699L30.1255 17.7922L31.0797 12.625L31.0798 12.6251ZM22.0632 14.3655L20.6429 15.1444L21.3918 18.1537L13.5 22.481L14.0576 23.9882L21.9494 19.6593L23.2989 22.3341L25.4875 21.1343L24.5402 17.3308L22.0632 14.3655ZM21.5028 23.2701V24.3701H17.5569C18.2667 26.4684 19.8304 27.9079 21.5028 28.3864V30.1691H24.1019C23.5641 31.8198 22.6149 33.18 21.5068 34.3646H20.3766V35.375H32.9964V34.3647H31.7801C30.5048 33.1808 29.5585 31.8224 29.045 30.1691H31.8703V28.5909C32.7468 28.2127 33.6234 27.536 34.5 26.6073C33.6207 25.6598 32.7589 25.1339 31.8703 24.8804V23.2702H21.5028L21.5028 23.2701Z" fill="#F46738"/>
</svg>
